<?xml version="1.0" standalone="no"?>
<!DOCTYPE svg PUBLIC "-//W3C//DTD SVG 20010904//EN"
 "http://www.w3.org/TR/2001/REC-SVG-20010904/DTD/svg10.dtd">
<svg version="1.0" xmlns="http://www.w3.org/2000/svg"
 width="512.000000pt" height="512.000000pt" viewBox="0 0 512.000000 512.000000"
 preserveAspectRatio="xMidYMid meet">
<metadata>
Created by potrace 1.14, written by Peter Selinger 2001-2017
</metadata>
<g transform="translate(0.000000,512.000000) scale(0.100000,-0.100000)"
fill="#000000" stroke="none">
<path d="M2415 5101 c-92 -26 -164 -69 -237 -142 -234 -236 -203 -615 68 -815
132 -98 145 -140 121 -377 -16 -153 -26 -178 -88 -210 -30 -16 -61 -17 -295
-15 l-261 3 -56 51 c-84 77 -135 99 -232 99 -62 0 -91 -5 -130 -23 -63 -29
-129 -92 -163 -157 -23 -43 -27 -62 -27 -140 0 -79 4 -97 27 -142 36 -68 90
-120 158 -152 45 -21 70 -26 135 -26 97 0 148 22 232 99 l56 51 234 3 c204 3
237 1 269 -14 46 -22 74 -67 74 -120 0 -22 -32 -387 -70 -810 -69 -759 -70
-769 -99 -830 -35 -75 -93 -134 -169 -171 -50 -24 -69 -28 -147 -28 -86 0 -94
2 -180 43 -106 51 -216 132 -277 205 -98 116 -112 150 -76 191 20 23 36 29
117 40 77 10 98 17 113 35 39 49 29 67 -159 303 -98 123 -198 249 -222 281
-61 80 -95 107 -136 107 -51 0 -78 -17 -112 -68 -210 -323 -396 -631 -396
-655 0 -15 10 -39 24 -53 24 -26 25 -26 136 -19 l112 7 29 -28 c18 -19 41 -66
65 -138 114 -330 341 -612 648 -805 145 -91 446 -214 599 -246 59 -13 150 -64
200 -114 27 -27 74 -96 111 -161 75 -136 98 -160 149 -160 51 0 76 26 146 155
104 190 168 241 377 300 605 169 1016 532 1187 1048 25 74 40 104 64 124 30
25 33 26 137 20 98 -6 109 -5 133 14 50 39 41 63 -135 340 -88 140 -179 284
-201 321 -57 96 -82 118 -133 118 -27 0 -51 -7 -67 -20 -14 -11 -127 -147
-252 -304 -195 -245 -226 -289 -226 -318 0 -55 30 -74 134 -87 100 -12 126
-27 126 -74 0 -104 -270 -341 -449 -393 -166 -49 -343 34 -418 194 -24 51 -30
103 -98 850 -50 553 -69 807 -63 829 11 39 58 80 101 88 18 4 132 5 253 3
l222 -3 51 -48 c137 -128 321 -137 450 -21 74 67 106 138 106 239 0 101 -32
172 -106 239 -129 116 -313 107 -450 -21 l-51 -48 -261 -3 c-359 -4 -362 -3
-383 202 -26 243 -17 291 73 363 147 119 202 188 243 308 117 341 -153 708
-520 704 -41 0 -102 -8 -135 -18z m273 -308 c124 -76 157 -235 74 -356 -54
-77 -170 -122 -258 -98 -157 42 -234 214 -161 358 47 91 129 136 235 129 47
-3 75 -11 110 -33z"/>
</g>
</svg>
